<?xml version="1.0" encoding="UTF-8" standalone="no"?>
<!-- Created with Inkscape (http://www.inkscape.org/) -->

<svg
   xmlns:dc="http://purl.org/dc/elements/1.1/"
   xmlns:cc="http://creativecommons.org/ns#"
   xmlns:rdf="http://www.w3.org/1999/02/22-rdf-syntax-ns#"
   xmlns:svg="http://www.w3.org/2000/svg"
   xmlns="http://www.w3.org/2000/svg"
   xmlns:xlink="http://www.w3.org/1999/xlink"
   xmlns:sodipodi="http://sodipodi.sourceforge.net/DTD/sodipodi-0.dtd"
   xmlns:inkscape="http://www.inkscape.org/namespaces/inkscape"
   width="2000"
   height="600"
   id="svg2"
   version="1.1"
   inkscape:version="0.48.0 r9654"
   style="display:inline"
   sodipodi:docname="ePrix.svg">
  <defs
     id="defs4">
    <linearGradient
       id="linearGradient4007"
       inkscape:collect="always">
      <stop
         id="stop4009"
         offset="0"
         style="stop-color:#019dcb;stop-opacity:1;" />
      <stop
         style="stop-color:#019dcb;stop-opacity:0.74117647;"
         offset="0.5674389"
         id="stop4011" />
      <stop
         id="stop4013"
         offset="1"
         style="stop-color:#019dcb;stop-opacity:0;" />
    </linearGradient>
    <linearGradient
       id="linearGradient3936">
      <stop
         style="stop-color:#019dcb;stop-opacity:1;"
         offset="0"
         id="stop3938" />
      <stop
         id="stop3946"
         offset="0.21771574"
         style="stop-color:#019dcb;stop-opacity:1;" />
      <stop
         style="stop-color:#019dcb;stop-opacity:1;"
         offset="0.37417197"
         id="stop3948" />
      <stop
         id="stop3950"
         offset="0.538203"
         style="stop-color:#019dcb;stop-opacity:1;" />
      <stop
         style="stop-color:#019dcb;stop-opacity:0;"
         offset="1"
         id="stop3940" />
    </linearGradient>
    <linearGradient
       id="linearGradient3865">
      <stop
         style="stop-color:#019dcb;stop-opacity:1;"
         offset="0"
         id="stop3867" />
      <stop
         id="stop3966"
         offset="0.25"
         style="stop-color:#059ecc;stop-opacity:1;" />
      <stop
         id="stop3964"
         offset="0.5"
         style="stop-color:#0aa0cd;stop-opacity:1;" />
      <stop
         id="stop3956"
         offset="1"
         style="stop-color:#14a4cf;stop-opacity:1;" />
    </linearGradient>
    <linearGradient
       id="linearGradient3857">
      <stop
         style="stop-color:#019dcb;stop-opacity:1;"
         offset="0"
         id="stop3859" />
      <stop
         id="stop3954"
         offset="0.31074572"
         style="stop-color:#019dcb;stop-opacity:1;" />
      <stop
         id="stop3952"
         offset="0.49810401"
         style="stop-color:#019dcb;stop-opacity:1;" />
      <stop
         style="stop-color:#ffffff;stop-opacity:1;"
         offset="1"
         id="stop3861" />
    </linearGradient>
    <linearGradient
       id="linearGradient3785">
      <stop
         style="stop-color:#009ccc;stop-opacity:1;"
         offset="0"
         id="stop3787" />
      <stop
         style="stop-color:#ffffff;stop-opacity:0;"
         offset="1"
         id="stop3789" />
    </linearGradient>
    <radialGradient
       inkscape:collect="always"
       xlink:href="#linearGradient3857"
       id="radialGradient3922"
       gradientUnits="userSpaceOnUse"
       gradientTransform="matrix(0.78979669,-0.13825045,0.17108895,0.97716151,800.80429,346.2911)"
       cx="-136.91486"
       cy="268.8782"
       fx="-136.91486"
       fy="268.8782"
       r="284.38135" />
    <radialGradient
       inkscape:collect="always"
       xlink:href="#linearGradient3936"
       id="radialGradient3942"
       cx="77.081718"
       cy="-1790.4863"
       fx="77.081718"
       fy="-1790.4863"
       r="945.9309"
       gradientTransform="matrix(1.5932624,-0.33545193,0.38572218,1.8320258,644.90062,1507.9862)"
       gradientUnits="userSpaceOnUse" />
    <radialGradient
       inkscape:collect="always"
       xlink:href="#linearGradient3958-7"
       id="radialGradient3919-2"
       gradientUnits="userSpaceOnUse"
       gradientTransform="matrix(-0.00137895,-0.4688578,2.9772983,-0.00906181,1414.2588,763.06158)"
       cx="431.74728"
       cy="-191.99174"
       fx="431.74728"
       fy="-191.99174"
       r="245.05106" />
    <linearGradient
       inkscape:collect="always"
       id="linearGradient3958-7">
      <stop
         style="stop-color:#019dcb;stop-opacity:1;"
         offset="0"
         id="stop3960-7" />
      <stop
         id="stop3968-1"
         offset="0.87832874"
         style="stop-color:#019dcb;stop-opacity:0.74117647;" />
      <stop
         style="stop-color:#019dcb;stop-opacity:0;"
         offset="1"
         id="stop3962-2" />
    </linearGradient>
    <radialGradient
       r="245.05106"
       fy="-0.17774881"
       fx="443.06177"
       cy="-0.17774881"
       cx="443.06177"
       gradientTransform="matrix(0.14438081,1.5102462,-1.2172927,0.11654164,385.02177,-76.467677)"
       gradientUnits="userSpaceOnUse"
       id="radialGradient3986"
       xlink:href="#linearGradient4007"
       inkscape:collect="always" />
    <radialGradient
       inkscape:collect="always"
       xlink:href="#linearGradient3857-4"
       id="radialGradient3922-0"
       gradientUnits="userSpaceOnUse"
       gradientTransform="matrix(0.78979669,-0.13825045,0.17108895,0.97716151,800.80429,346.2911)"
       cx="-134.90953"
       cy="246.9147"
       fx="-134.90953"
       fy="246.9147"
       r="284.38135" />
    <linearGradient
       id="linearGradient3857-4">
      <stop
         style="stop-color:#019dcb;stop-opacity:1;"
         offset="0"
         id="stop3859-9" />
      <stop
         id="stop3954-4"
         offset="0.38141534"
         style="stop-color:#019dcb;stop-opacity:1;" />
      <stop
         id="stop3952-6"
         offset="0.61185569"
         style="stop-color:#019dcb;stop-opacity:1;" />
      <stop
         style="stop-color:#ffffff;stop-opacity:1;"
         offset="1"
         id="stop3861-0" />
    </linearGradient>
    <radialGradient
       r="284.38135"
       fy="246.9147"
       fx="-134.90953"
       cy="246.9147"
       cx="-134.90953"
       gradientTransform="matrix(0.78979669,-0.13825045,0.17108895,0.97716151,1027.1041,29.856619)"
       gradientUnits="userSpaceOnUse"
       id="radialGradient4032"
       xlink:href="#linearGradient3857-4"
       inkscape:collect="always" />
    <radialGradient
       r="245.05106"
       fy="-0.17774881"
       fx="443.06177"
       cy="-0.17774881"
       cx="443.06177"
       gradientTransform="matrix(0.14438081,1.5102462,-1.2172927,0.11654164,385.02177,-76.467677)"
       gradientUnits="userSpaceOnUse"
       id="radialGradient3986-4"
       xlink:href="#linearGradient4007-5"
       inkscape:collect="always" />
    <linearGradient
       id="linearGradient4007-5"
       inkscape:collect="always">
      <stop
         id="stop4009-8"
         offset="0"
         style="stop-color:#019dcb;stop-opacity:1;" />
      <stop
         style="stop-color:#019dcb;stop-opacity:0.74117647;"
         offset="0.5674389"
         id="stop4011-8" />
      <stop
         id="stop4013-1"
         offset="1"
         style="stop-color:#019dcb;stop-opacity:0;" />
    </linearGradient>
  </defs>
  <sodipodi:namedview
     id="base"
     pagecolor="#ffffff"
     bordercolor="#666666"
     borderopacity="1.0"
     inkscape:pageopacity="0.0"
     inkscape:pageshadow="2"
     inkscape:zoom="0.36"
     inkscape:cx="1121.459"
     inkscape:cy="222.31234"
     inkscape:document-units="px"
     inkscape:current-layer="layer2"
     showgrid="false"
     inkscape:window-width="1280"
     inkscape:window-height="744"
     inkscape:window-x="-4"
     inkscape:window-y="-4"
     inkscape:window-maximized="1" />
  <metadata
     id="metadata7">
    <rdf:RDF>
      <cc:Work
         rdf:about="">
        <dc:format>image/svg+xml</dc:format>
        <dc:type
           rdf:resource="http://purl.org/dc/dcmitype/StillImage" />
        <dc:title></dc:title>
      </cc:Work>
    </rdf:RDF>
  </metadata>
  <g
     inkscape:groupmode="layer"
     id="layer2"
     inkscape:label="Capa"
     style="display:inline"
     transform="translate(0,-452.36218)">
    <g
       id="g4100">
      <path
         sodipodi:nodetypes="cccccc"
         inkscape:connector-curvature="0"
         id="path3801-1"
         d="m 905.4551,619.86087 c 43.11994,0.68218 37.15814,75.73329 -17.3211,76.09928 128.2907,1.69069 126.6171,-186.15045 3.12348,-189.6803 -127.63183,-2.27938 -113.32264,-1.39881 -251.77386,-0.44892 -83.65841,7.38201 -166.46195,46.5032 -205.37915,113.18529 76.9685,1.13158 366.40141,1.23537 471.35063,0.84465 z"
         style="fill:url(#radialGradient3922);fill-opacity:1;stroke:none;display:inline" />
      <path
         sodipodi:nodetypes="ccccc"
         inkscape:connector-curvature="0"
         id="path3801-6"
         d="m 414.725,619.95605 490.10206,0 c -47.8273,-10.21937 -32.6859,-84.84014 -14.1976,-113.58102 L 641.111,505.88438 C 536.20143,505.29016 453.26838,571.37999 414.725,619.95605 z"
         style="fill:url(#radialGradient3986);fill-opacity:1;stroke:none;display:inline" />
      <path
         sodipodi:nodetypes="csccccssc"
         inkscape:connector-curvature="0"
         id="path3803"
         d="m 892.53546,506.27954 c 64.76277,1.06301 96.90047,58.54134 90.55617,109.90356 -4.4355,35.90945 -28.1886,75.69402 -94.53151,79.77675 l -626.82527,0.85185 c -69.82683,1.73009 -157.64283,31.32738 -217.22373,113.58103 l 810.68457,0 c 122.64004,4.14602 194.85281,-98.2518 195.48141,-179.74903 0.6357,-82.42217 -69.42677,-123.94909 -118.14015,-124.23385 -24.33914,-0.14227 -21.64939,-0.41459 -40.00149,-0.13031 z"
         style="fill:#019dcb;fill-opacity:1;stroke:none;display:inline" />
      <path
         sodipodi:nodetypes="ccccc"
         inkscape:connector-curvature="0"
         id="path3805"
         d="m 367.50718,886.49201 893.88262,-0.14198 c -18.0281,22.61218 -100.0768,114.79757 -223.0448,114.85877 l -482.15135,-0.5679 c -126.48499,0.044 -164.56534,-78.63902 -188.68647,-114.14889 z"
         style="fill:#019dcb;fill-opacity:1;stroke:none;display:inline" />
      <path
         sodipodi:nodetypes="sssscccsssscssscssscsscsssscccccssssssscssscssccscssscsssssccscscsccccsccscssccccsccscsccccscccsscccccssscsccsccscsssccsccscscccccscsccsscsscscccssscsccscscscccscccscscsscccccccscccssscssssccscssssscccscccccssssssssssssccscssccssscscsscsssccccssccscssccccsssscscsssscssscsssscsccccscssssssccssccccsssscsccscccsccsccccccscsssssscccscscccsscssssssccscscsscccsscsssscssssscsscscscssscsccscscccssscsscscscssccssccc"
         inkscape:connector-curvature="0"
         id="path2996-6"
         d="m 1143.2917,807.04918 c -3.8878,-1.9756 -5.9798,-3.8919 -8,-7.3284 -2.4429,-4.1556 -2.7215,-5.5626 -2.6048,-13.1534 0.148,-9.6309 3.2813,-25.6 6.4832,-33.043 2.6349,-6.125 11.0257,-14.083 16.6144,-15.7574 4.2424,-1.2711 20.0641,-1.4724 24.2717,-0.3089 1.56,0.4314 2.6229,1.5426 2.8268,2.9554 0.6106,4.2312 -1.1194,4.9432 -10.6862,4.3977 -18.0428,-1.0288 -23.9118,4.1498 -28.1949,24.8781 -5.4234,26.2468 -1.4659,32.8924 18.6928,31.3895 5.0261,-0.3747 9.3722,-0.303 9.658,0.1594 0.9598,1.5529 -0.4877,6.188 -2.1502,6.8857 -0.9055,0.3799 -6.1463,0.8955 -11.6463,1.1456 -9.3339,0.4245 -10.3506,0.2767 -15.2645,-2.2203 z m 337.1686,0.1259 c -5.9917,-2.79 -8.9318,-6.9224 -10.5076,-14.7691 -0.8998,-4.4801 -0.7138,-7.5772 1.0999,-18.317 2.7035,-16.0091 5.1157,-22.603 10.3437,-28.2747 5.7658,-6.2551 10.6553,-8.4883 19.7786,-9.0334 16.43,-0.9817 24.2363,6.0459 24.2005,21.7865 -0.022,9.5025 -3.6748,27.7617 -6.932,34.6468 -6.5615,13.87 -24.2308,20.3644 -37.9831,13.9609 z m 17.2089,-6.7404 c 8.642,-2.1761 13.17,-9.0593 16.3304,-24.8246 3.8364,-19.137 2.3135,-27.4827 -5.4846,-30.0563 -8.8491,-2.9204 -18.5751,1.3629 -23.0223,10.139 -3.4299,6.7686 -6.6763,23.4906 -6.2272,32.0759 0.3948,7.5469 2.7091,11.1243 8.2356,12.7305 4.2297,1.2292 5.0508,1.224 10.1681,-0.064 z m 100.887,8.301 c -3.1708,-0.5297 -4.0677,-1.1461 -4.3268,-2.9733 -0.63,-4.4441 1.1859,-5.1822 11.1718,-4.5413 10.9002,0.6995 16.7691,-0.6139 20.813,-4.6578 3.2829,-3.2829 3.8728,-9.0792 1.2981,-12.7551 -0.8492,-1.2124 -5.7853,-5.1614 -10.9692,-8.7756 -10.5151,-7.3312 -12.9472,-9.9316 -14.6716,-15.6872 -1.4523,-4.8473 0.1581,-12.0433 3.4968,-15.6253 4.6514,-4.9903 9.4091,-6.5353 21.4532,-6.9663 16.6222,-0.5949 20.9328,0.7722 18.2487,5.7875 -0.8568,1.6009 -2.6338,1.8737 -14.2464,2.1867 -14.6223,0.3942 -18.16,1.6143 -19.4622,6.7121 -1.6163,6.3273 -0.055,8.4131 13.0126,17.3849 10.7412,7.3746 13.8217,11.1414 14.4489,17.668 0.8728,9.0839 -2.7295,15.4905 -11.1156,19.7687 -4.3864,2.2378 -6.6362,2.6662 -15.1513,2.8851 -5.5,0.1414 -11.8,-0.044 -14,-0.4111 z m -415.1147,-1.6065 c -0.5297,-1.3806 1.2013,-12.3282 8.6274,-54.5618 2.5678,-14.6037 2.5966,-14.6851 5.4437,-15.3997 6.1145,-1.5346 6.5511,0.5303 3.5574,16.8247 -1.0924,5.9458 -1.7409,11.2076 -1.441,11.6928 0.2999,0.4852 7.4455,0.8822 15.8792,0.8822 12.8677,0 15.4288,-0.247 15.9235,-1.536 0.3242,-0.8449 1.5171,-7.0324 2.651,-13.75 2.082,-12.3351 3.2205,-14.714 7.0422,-14.714 4.6236,0 4.562,1.4763 -1.5133,36.3098 -3.1837,18.2546 -6.2413,33.7527 -6.7945,34.4402 -0.5532,0.6875 -2.5814,1.25 -4.5072,1.25 l -3.5014,0 0.4999,-5.25 c 0.2749,-2.8875 1.3109,-9.7789 2.3021,-15.3143 0.9912,-5.5353 1.5111,-10.8228 1.1553,-11.75 -0.567,-1.4777 -2.5055,-1.6857 -15.7096,-1.6857 -11.1325,0 -15.1856,0.3262 -15.5335,1.25 -0.2588,0.6875 -1.7072,8.225 -3.2186,16.75 l -2.7479,15.5 -3.758,0.3109 c -2.6887,0.2224 -3.9284,-0.1331 -4.3567,-1.2491 z m 65.3494,0.1882 c -0.5594,-1.459 8.4536,-52.7606 10.198,-58.046 3.1659,-9.5927 9.0394,-12.6508 24.3571,-12.682 8.9482,-0.018 11.4787,0.3295 14.8257,2.0369 4.4225,2.2562 6.8845,6.5945 6.8845,12.1311 0,5.0642 -9.0374,55.1502 -10.2051,56.5571 -1.4463,1.7427 -6.7312,1.5824 -7.4249,-0.2252 -0.312,-0.813 0.3889,-7.137 1.5574,-14.0534 1.1685,-6.9164 1.8613,-13.0013 1.5396,-13.5219 -0.7278,-1.1776 -27.1516,-1.2658 -27.8764,-0.093 -0.2902,0.4694 -1.5027,6.6569 -2.6945,13.75 -1.1919,7.0931 -2.6112,13.459 -3.154,14.1465 -0.5429,0.6875 -2.4587,1.25 -4.2576,1.25 -1.7988,0 -3.4862,-0.5625 -3.7498,-1.25 z m 44.9895,-42.2107 c 0.6733,-2.7283 1.4958,-7.4533 1.8279,-10.5 0.9112,-8.3613 -0.3045,-9.4535 -11.0126,-9.8936 -9.8708,-0.4056 -13.9521,0.8177 -16.0109,4.7991 -1.6842,3.2567 -4.7452,18.8957 -3.9503,20.182 0.322,0.5209 6.5784,0.8067 14.2479,0.651 l 13.6738,-0.2778 z m 17.2623,40.7107 c -0.023,-4.7688 10.0492,-61.6007 11.5038,-64.9072 1.5672,-3.5626 5.458,-4.9503 10.9767,-3.9149 3.9837,0.7473 4.5752,2.0496 7.5277,16.5721 2.8263,13.9018 3.9278,18 4.8378,18 0.4154,0 4.7365,-7.1975 9.6023,-15.9945 4.8659,-8.7969 9.4109,-16.4625 10.1002,-17.0345 0.6893,-0.5721 3.4948,-1.3056 6.2346,-1.6301 4.2263,-0.5005 5.3056,-0.2656 7.1211,1.5498 1.3976,1.3976 1.9615,2.9149 1.6259,4.3746 -0.2826,1.2291 -2.7786,15.5097 -5.5467,31.7347 -2.768,16.225 -5.459,30.5125 -5.9799,31.75 -0.7194,1.7091 -1.7679,2.25 -4.3616,2.25 -1.8779,0 -3.6133,-0.5625 -3.8563,-1.25 -0.2431,-0.6875 1.7063,-13.175 4.3318,-27.75 2.6255,-14.575 4.8012,-27.6089 4.8349,-28.9643 0.054,-2.1572 -0.1187,-2.2818 -1.383,-1 -0.7942,0.8054 -4.8569,7.5393 -9.0281,14.9643 -4.1711,7.425 -8.5211,14.2875 -9.6666,15.25 -2.4242,2.037 -7.7647,2.3014 -10.0977,0.5 -1.0266,-0.7927 -2.7658,-6.5538 -4.7546,-15.75 -3.0483,-14.0952 -4.4228,-17.8775 -5.4212,-14.9172 -0.2628,0.7795 -2.5348,13.3422 -5.0489,27.9172 -2.5141,14.575 -4.7973,27.5125 -5.0739,28.75 -0.4185,1.8724 -1.1711,2.25 -4.4839,2.25 -3.6729,0 -3.9819,-0.2127 -3.9944,-2.75 z m 73.5232,1.7658 c -0.3345,-0.5414 1.6305,-13.7039 4.3667,-29.25 2.7362,-15.5462 5.2935,-30.4634 5.6829,-33.1493 1.1479,-7.9192 2.4607,-8.6174 16.1907,-8.6109 13.8434,0.01 18.2225,1.0235 22.8981,5.3175 8.6867,7.9778 5.322,26.8263 -6.0543,33.9155 -5.0489,3.1461 -8.4864,3.9268 -20.5849,4.6747 l -9.4912,0.5867 -2.1804,12.7187 c -1.1993,6.9952 -2.4674,13.1827 -2.8179,13.75 -0.8124,1.3144 -7.2032,1.352 -8.0097,0.047 z m 36.4717,-37.5779 c 4.8401,-2.8341 7.2337,-6.6209 7.7803,-12.3091 1.0313,-10.7337 -1.7374,-13.1288 -15.1769,-13.1288 -7.103,0 -8.6621,0.2901 -9.4052,1.75 -1.4447,2.8381 -4.528,22.8998 -3.8079,24.7762 0.572,1.4907 1.7822,1.6641 8.9806,1.2863 5.8009,-0.3045 9.3215,-1.0234 11.6291,-2.3746 z m 21.7287,37.249 c -0.4614,-1.2023 3.9128,-27.451 9.5266,-57.1677 2.1412,-11.3342 2.4126,-12.033 5.029,-12.9485 2.1568,-0.7547 3.1257,-0.6078 4.4006,0.6671 1.5133,1.5132 1.2051,4.0774 -4.1402,34.4486 -3.1764,18.0475 -6.185,33.6011 -6.6858,34.5636 -1.0892,2.0931 -7.3653,2.4303 -8.1302,0.4369 z m 88.7641,0.2714 c -0.8908,-1.4413 10.6289,-66.7163 12.1391,-68.7852 1.0313,-1.4128 3.6066,-1.7211 16.554,-1.982 14.4748,-0.2917 15.5845,-0.1774 19.8327,2.0437 5.6931,2.9765 9.0016,8.9441 8.9965,16.2271 0,4.2843 -5.0486,36.2796 -7.7333,49.0381 -0.7816,3.7145 -1.1071,4.0222 -4.5605,4.3109 -2.6822,0.2242 -3.8891,-0.1331 -4.3299,-1.2816 -0.3361,-0.8759 1.2426,-12.1031 3.5081,-24.9494 4.6302,-26.255 4.7294,-27.4914 2.5709,-32.0402 -2.1648,-4.5619 -5.0806,-5.5397 -16.5203,-5.5397 -9.3955,0 -10.0295,0.1306 -10.9249,2.25 -0.5227,1.2375 -3.1994,15.2084 -5.9481,31.0463 -2.7487,15.838 -5.2629,29.2255 -5.5871,29.75 -0.7959,1.2877 -7.1905,1.2173 -7.9972,-0.088 z m 117.0418,0.068 c -0.5068,-0.8202 1.8322,-15.3655 9.8492,-61.2457 0.6458,-3.6958 1.6154,-7.1328 2.1545,-7.6376 1.8421,-1.7248 5.0835,-2.1534 6.7879,-0.8974 1.5992,1.1784 1.5808,1.8931 -0.3025,11.7527 -1.1028,5.7739 -2.0051,11.9614 -2.0051,13.75 l 0,3.252 15.441,0 c 8.4925,0 15.6528,-0.3427 15.9117,-0.7616 0.2588,-0.4189 1.434,-6.1564 2.6114,-12.75 2.7441,-15.3673 2.6802,-15.1823 5.4923,-15.8881 3.5543,-0.8921 5.5434,0.2762 5.5449,3.2567 0,2.3847 -8.9763,55.6582 -10.8091,64.143 -0.6817,3.1557 -1.1227,3.5306 -4.4822,3.8108 -2.6838,0.2239 -3.8964,-0.133 -4.3349,-1.2758 -0.3349,-0.8726 0.5524,-8.1694 1.9718,-16.2149 1.4193,-8.0456 2.3454,-15.009 2.0579,-15.4742 -0.8798,-1.4235 -29.9948,-1.0463 -31.1901,0.4041 -0.5666,0.6875 -2.1674,7.8831 -3.5573,15.9901 -1.3899,8.1071 -2.808,15.1946 -3.1513,15.75 -0.799,1.2928 -7.1955,1.3215 -7.9901,0.036 z m 66.484,-1.8177 c 0,-1.5355 1.5732,-11.548 3.4959,-22.25 1.9227,-10.7021 4.4722,-25.2198 5.6655,-32.2617 2.3304,-13.7519 3.3816,-15.53 8.4317,-14.2625 3.2231,0.8089 3.1738,1.6775 -1.6233,28.5659 -2.2078,12.375 -4.6866,26.325 -5.5085,31 -2.1602,12.2876 -2.0037,12 -6.5287,12 -3.6377,0 -3.9326,-0.2093 -3.9326,-2.7917 z m 24.6384,1.2917 c -0.3166,-0.825 -0.3766,-2.0625 -0.1334,-2.75 0.2433,-0.6875 2.9391,-15.65 5.9906,-33.25 4.267,-24.6098 5.9474,-32.3052 7.2764,-33.3216 1.2919,-0.9881 5.1348,-1.2339 15.2279,-0.9741 11.6353,0.2994 14.0852,0.6565 17.7365,2.585 6.1751,3.2615 8.698,8.6547 7.9244,16.9396 -1.5585,16.6895 -12.0098,24.2711 -33.4576,24.2711 -7.4515,0 -7.3725,-0.1139 -9.7032,14 -0.9536,5.775 -2.1471,11.2875 -2.6521,12.25 -1.1687,2.2274 -7.3782,2.4165 -8.2095,0.25 z m 33.3033,-35.4833 c 11.3806,-3.2639 16.111,-20.8353 6.8924,-25.6024 -2.0661,-1.0684 -5.3584,-1.4096 -11.6091,-1.2028 l -8.7251,0.2885 -2.3718,12.2115 c -1.3044,6.7164 -2.106,12.9039 -1.7812,13.75 0.6978,1.8189 11.9506,2.174 17.5948,0.5552 z m -508.4417,-63.9696 c -9.7,-2.4192 -17.9146,-9.0537 -22.168,-17.9042 -3.8199,-7.9483 -4.316,-20.5217 -1.4063,-35.6429 3.597,-18.6934 6.9131,-26.7677 14.4247,-35.1224 8.8623,-9.857 23.1164,-14.9803 39.1496,-14.0715 11.3249,0.642 17.1923,2.7127 23.335,8.2355 6.3628,5.7207 10.1507,14.033 10.8296,23.7648 0.7084,10.154 -4.3967,35.3702 -9.1417,45.1552 -6.5708,13.5499 -16.5239,21.6769 -30.616,24.9987 -6.6772,1.5739 -19.2381,1.8759 -24.4069,0.5868 z m 25.7169,-23.6319 c 6.2708,-4.4073 9.2847,-11.1935 12.3927,-27.9039 2.2549,-12.1232 2.4489,-14.6722 1.4547,-19.1146 -1.7186,-7.6797 -6.5581,-11.4121 -14.7486,-11.3747 -9.0128,0.041 -16.2902,5.14 -20.3097,14.2299 -2.6664,6.03 -6.0065,23.4111 -6.0044,31.2462 0,11.7306 5.3222,16.901 16.7278,16.2599 4.9572,-0.2786 7.0991,-0.9613 10.4875,-3.3428 z m 293.2831,23.9115 c -6.7897,-1.4983 -12.8579,-4.9379 -17.3146,-9.8141 -5.7878,-6.3329 -8.1854,-12.977 -8.1854,-22.6834 0,-8.6206 9.5991,-64.4873 11.6176,-67.6148 1.3919,-2.1566 2.0172,-2.2695 11.0727,-2 7.7392,0.2303 9.8045,0.6147 10.6667,1.9852 0.802,1.2749 -0.2412,9.148 -4.1737,31.5 -6.6875,38.0121 -6.692,43.4347 -0.038,46.8754 4.3043,2.2259 13.6526,1.8177 18.8931,-0.825 7.8628,-3.965 9.3065,-8.0324 15.8877,-44.763 3.1373,-17.5099 6.2926,-32.5451 7.0117,-33.4116 1.0086,-1.2153 3.3176,-1.5754 10.1032,-1.5754 10.955,0 11.9593,0.3684 11.9593,4.3858 0,4.2698 -9.6373,58.7013 -11.6097,65.5715 -4.8795,16.9965 -15.644,27.7694 -31.4769,31.5015 -5.9434,1.4009 -19.7704,1.8925 -24.4134,0.8679 z m 102.5814,-0.9151 c -6.384,-1.7164 -10.3935,-4.0482 -14.7802,-8.5956 -9.6976,-10.0529 -10.1724,-21.9797 -2.5181,-63.2484 3.8781,-20.9087 5.3983,-27.2271 6.7972,-28.25 1.8555,-1.3567 16.7625,-1.8907 19.8379,-0.7106 2.3627,0.9067 2.0397,4.3327 -3.0069,31.893 -2.5178,13.75 -4.8173,28.8723 -5.1099,33.6051 -0.5193,8.3965 -0.4627,8.6827 2.3332,11.8054 2.3379,2.6111 3.9309,3.3443 8.6531,3.9826 3.1833,0.4303 6.2454,1.24 6.8046,1.7993 1.2942,1.2941 -0.7115,13.8687 -2.7207,17.0576 -1.1566,1.8356 -2.2884,2.2379 -6.1447,2.1842 -2.5998,-0.036 -7.1653,-0.7214 -10.1455,-1.5226 z m 60.8479,0.2211 c -11.1268,-3.0001 -18.7391,-10.1025 -21.9589,-20.488 -3.0468,-9.8272 -2.3045,-21.9696 2.6683,-43.6447 7.0636,-30.7888 29.4964,-42.9146 68.5124,-37.0334 13.288,2.0031 18.7655,3.5027 19.7626,5.4104 0.5321,1.0179 -1.1575,12.994 -4.5318,32.123 -2.9591,16.775 -6.3652,36.3221 -7.569,43.438 -1.4449,8.5405 -2.7695,13.5185 -3.8972,14.6462 -4.9339,4.934 -41.1863,8.7301 -52.9864,5.5485 z m 31.9702,-20.1327 c 0.547,-0.55 3.2883,-14.2048 6.0918,-30.3441 3.95,-22.7395 4.8346,-29.6605 3.9305,-30.75 -0.8589,-1.0349 -3.7838,-1.4059 -11.0842,-1.4059 -11.3013,0 -15.4061,1.4666 -20.5717,7.3499 -3.8309,4.3632 -5.6624,9.9845 -8.2302,25.2612 -3.3454,19.9028 -2.695,24.6731 3.9789,29.1855 3.2175,2.1754 4.3078,2.3314 14.1878,2.03 5.8864,-0.1796 11.1501,-0.7766 11.6971,-1.3266 z m 111.7244,19.8634 c -20.6954,-6.3553 -27.5209,-23.7771 -21.3131,-54.4005 1.3895,-6.8546 3.471,-14.9852 4.6255,-18.0681 7.6403,-20.4029 25.1526,-30.9138 49.3405,-29.6143 14.9304,0.8021 24.1729,6.777 29.9942,19.39 1.9728,4.2746 2.2201,6.3808 2.152,18.3295 -0.051,8.9753 -0.555,14.8407 -1.5034,17.5 l -1.4266,4 -30.1647,0.5 c -16.5907,0.275 -30.4909,0.8268 -30.8895,1.2262 -0.3985,0.3994 -0.7246,3.11 -0.7246,6.0234 0,7.402 2.3367,11.4431 8.0879,13.9871 4.3918,1.9427 5.8231,2.0228 24.8563,1.3902 13.8611,-0.4607 20.4019,-0.3381 20.8524,0.3908 1.1522,1.8642 -1.5444,14.7027 -3.4504,16.4276 -4.2567,3.8522 -40.5556,5.9524 -50.4365,2.9181 z m 40.8742,-60.3605 c 1.2463,-2.0165 0.6435,-10.8282 -0.9518,-13.9131 -5.4262,-10.4932 -24.194,-9.0222 -31.4805,2.4674 -3.1296,4.9348 -4.6304,9.7204 -3.581,11.4184 0.8433,1.3645 35.1708,1.3905 36.0133,0.027 z m -781.663,60.2262 c -0.9156,-0.1886 -1.9161,-0.9978 -2.2232,-1.7982 -0.3072,-0.8004 0.9721,-10.1123 2.8428,-20.6931 1.8707,-10.5807 4.7916,-27.2296 6.4909,-36.9974 3.6064,-20.73 5.6552,-26.8581 10.7238,-32.0765 8.1452,-8.386 15.2685,-9.8552 45.8306,-9.4532 l 22,0.2893 -0.208,7.3614 c -0.3533,12.5073 0.3667,12.1359 -23.5651,12.1534 -14.062,0.01 -20.9722,0.3919 -22.6722,1.2522 -3.4657,1.754 -5.7792,6.3132 -6.5879,12.983 l -0.6972,5.75 16.3652,0.014 c 9.0008,0.01 17.4364,0.3004 18.7457,0.6508 2.2671,0.6068 2.353,0.9319 1.8029,6.8233 -0.3177,3.4024 -1.1237,7.3846 -1.7911,8.8492 l -1.2133,2.6631 -18.2805,0 c -13.2632,0 -18.4865,0.3335 -19.0313,1.2148 -0.4129,0.6682 -2.2117,9.5118 -3.9972,19.6526 -1.7856,10.1407 -3.8368,18.9972 -4.5582,19.681 -1.2411,1.1762 -16.2823,2.4417 -19.9767,1.6807 z m 190.9149,-0.022 c -1.2869,-0.2599 -1.75,-1.3306 -1.75,-4.0459 0,-6.1416 14.7733,-88.1827 16.1859,-89.8861 3.1702,-3.8227 17.0038,-7.1346 33.328,-7.979 13.8385,-0.7158 14.0434,-0.5553 12.3529,9.6807 -0.6543,3.9619 -1.7537,7.7676 -2.4432,8.4571 -0.728,0.728 -5.3504,1.5227 -11.024,1.8954 -5.3737,0.353 -10.1691,1.0405 -10.6563,1.5277 -0.7663,0.7663 -3.6713,16.2981 -12.5266,66.975 -1.089,6.2324 -2.3708,11.6972 -2.8484,12.1439 -0.9077,0.849 -17.581,1.8447 -20.6183,1.2312 z m 61.4819,-0.7791 c -1.5074,-1.1023 -1.1142,-4.2185 4.6672,-36.9909 3.4723,-19.683 6.955,-37.6061 7.7394,-39.8292 3.7922,-10.7483 10.818,-18.0628 21.0158,-21.8795 5.0133,-1.8763 7.9104,-2.1907 20.3457,-2.208 13.9033,-0.019 14.721,0.094 19.8718,2.7498 l 5.3718,2.7699 6.6282,-2.6805 c 5.2746,-2.1331 8.7763,-2.7741 17.1469,-3.1388 12.9111,-0.5626 20.4086,0.8702 26.6794,5.0984 6.7825,4.573 9.4557,10.2688 9.5451,20.3373 0.087,9.8075 -10.736,73.078 -12.8883,75.3438 -1.0298,1.0841 -3.8412,1.5401 -10.1399,1.6446 -9.5518,0.1585 -12.215,-0.6603 -12.215,-3.7555 0,-1.1223 2.7341,-17.581 6.0757,-36.5749 6.7049,-38.1104 6.7219,-39.1433 0.6806,-41.2493 -4.4345,-1.5459 -13.3918,-1.3047 -16.789,0.4521 -1.6134,0.8343 -3.6788,2.9582 -4.5897,4.7198 -0.911,1.7616 -4.4793,19.1297 -7.9296,38.5957 -3.4503,19.466 -6.6905,35.81 -7.2004,36.32 -1.1136,1.1136 -3.2292,1.2705 -13.8906,1.0307 -6.0981,-0.1372 -8.2839,-0.5504 -8.7042,-1.6456 -0.3086,-0.8043 2.1182,-16.6129 5.393,-35.1303 3.2748,-18.5173 5.9542,-35.1344 5.9542,-36.9268 0,-1.7924 -0.8512,-4.31 -1.8915,-5.5948 -1.6154,-1.9949 -2.9655,-2.3836 -9.25,-2.6628 -8.7356,-0.3882 -13.0807,1.6714 -15.4404,7.3189 -0.8039,1.9239 -4.1779,18.9016 -7.4979,37.7281 -3.4104,19.3394 -6.6132,34.8168 -7.3625,35.5787 -1.7733,1.8031 -19.0117,2.2712 -21.3258,0.5791 z m 426.3988,-36.6799 c -1.8104,-1.3514 -1.8152,-1.7234 -0.1531,-11.8215 2.4503,-14.8862 2.4877,-14.9263 13.9229,-14.9263 12.3284,0 12.26,-0.092 10.0352,13.4658 -0.9529,5.8068 -2.3043,11.3401 -3.003,12.2961 -1.7162,2.3481 -17.9466,3.1174 -20.802,0.9859 z m -658.2091,-95.0914 c -0.2836,-0.739 1.7146,-14.0009 4.4404,-29.4708 7.0109,-39.79 7.4723,-40.4337 29.4169,-41.0367 16.4006,-0.4507 17.9401,-0.088 17.5319,4.1354 l -0.3108,3.2157 -13,0.5045 c -13.3968,0.5198 -16.5682,1.3859 -18.5353,5.0615 -1.3695,2.559 -3.7721,15.0223 -3.2162,16.684 0.3088,0.9231 4.1975,1.25 14.8662,1.25 15.721,0 16.8734,0.4386 14.5501,5.5376 -1.0819,2.3747 -1.322,2.414 -16.3814,2.6862 l -15.2834,0.2762 -2.5972,14.6306 c -1.4284,8.0468 -2.8768,15.3593 -3.2186,16.25 -0.7769,2.0245 -7.5053,2.2491 -8.2626,0.2758 z m 54.046,0.094 c -0.2583,-0.6875 2.226,-16.325 5.5206,-34.75 4.5647,-25.5275 6.3953,-33.7975 7.6922,-34.75 2.1614,-1.5875 3.4905,-1.5767 5.7102,0.046 1.681,1.2292 1.5578,2.511 -2.3798,24.75 -2.2839,12.8995 -4.8149,27.5037 -5.6246,32.4537 -2.0399,12.4719 -2.565,13.5 -6.8961,13.5 -1.9541,0 -3.7642,-0.5625 -4.0225,-1.25 z m 24.9654,-0.064 c -0.6418,-1.6728 8.1075,-51.6609 10.11,-57.7617 1.7263,-5.2593 6.4356,-10.1486 11.3562,-11.7903 5.5499,-1.8517 22.9678,-1.4538 27.0297,0.6174 5.4303,2.769 7.4108,6.2545 7.3642,12.9602 -0.042,5.9902 -7.673,51.0608 -9.3191,55.0383 -0.7086,1.7122 -1.7472,2.25 -4.3456,2.25 -1.9051,0 -3.6383,-0.5834 -3.9208,-1.3197 -0.2785,-0.7257 0.4898,-6.939 1.7073,-13.8072 1.2175,-6.8682 2.0347,-13.0243 1.816,-13.6804 -0.2815,-0.8444 -4.3051,-1.1927 -13.779,-1.1927 -11.7249,0 -13.4962,0.2166 -14.3075,1.75 -0.5093,0.9625 -1.7201,6.7 -2.6907,12.75 -2.4081,15.0107 -2.6278,15.5 -6.9603,15.5 -2.0147,0 -3.7747,-0.5696 -4.0604,-1.3139 z m 43.3522,-37.9361 c 1.3187,-1.6003 3.2148,-11.8492 3.2148,-17.3769 0,-6.0093 -2.2699,-7.3731 -12.2722,-7.3731 -9.2377,0 -13.2904,1.6849 -15.1934,6.3165 -1.7239,4.1955 -3.8773,17.3198 -3.059,18.6437 0.9708,1.5708 26.0009,1.3781 27.3098,-0.2102 z"
         style="fill:#019dcb;fill-opacity:1;display:inline" />
      <path
         sodipodi:nodetypes="ccccc"
         inkscape:connector-curvature="0"
         id="path3801-6-2"
         d="m 415.19412,619.03682 344.44989,0.54348 c -47.8273,-10.21937 -33.22938,-85.38362 -14.74108,-114.1245 l -103.32281,-0.49065 c -104.90957,-0.59422 -187.84262,65.49561 -226.386,114.07167 z"
         style="fill:#019dcb;fill-opacity:1;stroke:none;display:inline" />
    </g>
  </g>
</svg>
