<svg width="417" height="459" viewBox="0 0 417 459" fill="none" xmlns="http://www.w3.org/2000/svg">
<g filter="url(#filter0_d_1_276)">
<path fill-rule="evenodd" clip-rule="evenodd" d="M-5.51881 6.86667C92.1039 -9.2894 259.667 23.7896 375.152 132.375C398.79 160.061 410.309 185.755 414.314 208.71C418.321 231.67 414.816 251.922 408.36 268.726C401.902 285.533 392.491 298.892 384.691 308.05C380.792 312.628 377.297 316.154 374.779 318.534C373.52 319.724 372.506 320.627 371.807 321.232C371.458 321.535 371.187 321.762 371.005 321.914L370.907 321.995C370.862 322.032 370.826 322.062 370.798 322.085L370.746 322.127L370.734 322.137L370.731 322.139C370.731 322.139 370.73 322.139 370.746 322.159C370.773 322.193 370.845 322.284 371.043 322.53L371.242 322.779C371.356 322.92 371.356 322.92 371.357 322.919L371.361 322.916L371.375 322.904L371.43 322.859C371.464 322.832 371.509 322.795 371.565 322.749L371.644 322.683C371.805 322.549 372.032 322.358 372.317 322.113L372.462 321.988C373.171 321.374 374.196 320.461 375.466 319.261C378.007 316.859 381.527 313.307 385.452 308.698C393.303 299.481 402.784 286.027 409.293 269.084C415.804 252.138 419.342 231.703 415.3 208.538C411.257 185.373 399.641 159.512 375.894 131.705L375.876 131.684L375.857 131.666C260.129 22.8375 92.2333 -10.3244 -5.68209 5.88009L-5.51881 6.86667ZM5.11207 104.986C17.5577 102.124 39.3255 101.243 65.6171 102.772C91.8948 104.302 122.647 108.236 153.044 114.981C183.442 121.726 213.466 131.279 238.296 144.035C263.134 156.796 282.718 172.734 292.322 192.22C299.699 207.186 301.396 220.045 298.612 230.245C295.831 240.428 288.56 248.041 277.819 252.494C256.298 261.417 220.884 257.618 180.314 236.209C119.328 204.025 76.8607 214.126 64.3578 217.516L64.6195 218.481C76.9614 215.135 119.151 205.062 179.847 237.093C220.53 258.563 256.281 262.507 278.202 253.418C289.183 248.866 296.702 241.035 299.576 230.508C302.446 219.997 300.663 206.88 293.219 191.778C283.477 172.013 263.675 155.949 238.753 143.145C213.822 130.337 183.709 120.761 153.26 114.005C122.809 107.248 92.0029 103.306 65.6752 101.774C39.3613 100.243 17.477 101.116 4.88793 104.011L5.11207 104.986ZM59.3457 440.156C64.0367 442.552 69.0211 445.099 74.3198 447.833L73.8616 448.722C68.5828 445.998 63.612 443.458 58.93 441.066L58.9289 441.066L58.9147 441.058C45.1559 434.029 33.8914 428.273 24.6324 422.86C12.2134 415.6 3.34873 408.926 -3.13474 400.562C-9.62236 392.193 -13.6964 382.169 -16.6043 368.258C-19.5102 354.357 -21.2577 336.539 -23.0727 312.565C-26.9181 261.774 6.18709 226.586 52.8104 216.042L53.0315 217.018C6.79439 227.474 -25.8765 262.286 -22.0756 312.49C-20.2602 336.469 -18.5162 354.225 -15.6254 368.054C-12.7365 381.875 -8.70858 391.74 -2.34453 399.95C4.02367 408.165 12.7604 414.761 25.1367 421.997C34.3691 427.394 45.5971 433.131 59.3457 440.156ZM370.855 322.635C369.645 323.573 368.345 324.607 366.947 325.719C348.852 340.111 314.381 367.53 248.315 367.53C217.001 367.53 192.997 356.445 173.528 346.636C172.089 345.911 170.674 345.192 169.282 344.485C161.271 340.417 154.02 336.736 147.359 334.429C139.531 331.717 132.425 330.869 125.764 333.567C113.917 338.365 104.016 348.321 101.214 360.496C98.403 372.71 102.765 387.016 119.167 400.417C135.552 413.805 163.983 426.326 209.445 435.068C254.916 443.811 317.465 448.78 402.125 447.03L402.104 446.03C317.488 447.78 255.014 442.811 209.634 434.086C164.246 425.359 136 412.88 119.799 399.643C103.615 386.419 99.4831 372.475 102.189 360.72C104.903 348.926 114.529 339.195 126.139 334.493C132.476 331.927 139.305 332.697 147.032 335.374C153.623 337.656 160.801 341.301 168.817 345.371L168.825 345.375C170.217 346.082 171.634 346.801 173.078 347.529C192.573 357.351 216.754 368.53 248.315 368.53C314.73 368.53 349.43 340.93 367.562 326.507C368.96 325.395 370.26 324.362 371.468 323.425L370.855 322.635Z" fill="#CA3434"/>
<path d="M375.152 132.375L376.292 131.401L376.239 131.339L376.179 131.283L375.152 132.375ZM-5.51881 6.86667L-6.99869 7.11158L-6.75378 8.59145L-5.2739 8.34654L-5.51881 6.86667ZM414.314 208.71L415.792 208.452L414.314 208.71ZM408.36 268.726L406.96 268.188V268.188L408.36 268.726ZM384.691 308.05L385.833 309.022L384.691 308.05ZM374.779 318.534L375.81 319.624H375.81L374.779 318.534ZM371.807 321.232L370.825 320.098H370.825L371.807 321.232ZM371.005 321.914L371.962 323.069L371.964 323.067L371.005 321.914ZM370.907 321.995L371.862 323.152L371.864 323.15L370.907 321.995ZM370.798 322.085L371.744 323.249L371.747 323.246L370.798 322.085ZM370.746 322.127L371.688 323.294L371.692 323.291L370.746 322.127ZM370.734 322.137L371.666 323.312L371.676 323.304L370.734 322.137ZM370.731 322.139L369.798 320.964L369.776 320.982L369.755 321L370.731 322.139ZM370.746 322.159L369.57 323.09L369.57 323.091L370.746 322.159ZM371.043 322.53L369.872 323.468L369.872 323.468L371.043 322.53ZM371.242 322.779L370.072 323.717L370.073 323.718L371.242 322.779ZM371.357 322.919L370.419 321.749L370.41 321.756L370.401 321.763L371.357 322.919ZM371.361 322.916L372.299 324.086L372.301 324.084L371.361 322.916ZM371.375 322.904L372.316 324.073L372.321 324.068L371.375 322.904ZM371.43 322.859L372.377 324.023L372.378 324.022L371.43 322.859ZM371.565 322.749L372.521 323.905L372.522 323.904L371.565 322.749ZM371.644 322.683L372.602 323.838L372.603 323.836L371.644 322.683ZM372.317 322.113L373.296 323.249L373.298 323.248L372.317 322.113ZM372.462 321.988L373.442 323.124L373.443 323.122L372.462 321.988ZM375.466 319.261L376.497 320.351L375.466 319.261ZM385.452 308.698L384.311 307.725L385.452 308.698ZM409.293 269.084L410.693 269.622L409.293 269.084ZM415.3 208.538L413.822 208.796L415.3 208.538ZM375.894 131.705L374.754 132.679L375.894 131.705ZM375.876 131.684L377.017 130.71L376.964 130.648L376.904 130.592L375.876 131.684ZM375.857 131.666L374.829 132.758L374.829 132.759L375.857 131.666ZM-5.68209 5.88009L-5.927 4.40022L-7.40687 4.64513L-7.16196 6.125L-5.68209 5.88009ZM65.6171 102.772L65.5299 104.27L65.6171 102.772ZM5.11207 104.986L3.65023 105.322L3.98644 106.784L5.44828 106.448L5.11207 104.986ZM153.044 114.981L152.719 116.445H152.719L153.044 114.981ZM238.296 144.035L237.61 145.369L238.296 144.035ZM292.322 192.22L290.977 192.883L292.322 192.22ZM298.612 230.245L297.165 229.85L298.612 230.245ZM277.819 252.494L278.394 253.88V253.88L277.819 252.494ZM180.314 236.209L181.014 234.882L180.314 236.209ZM64.3578 217.516L63.9653 216.068L62.5175 216.461L62.9101 217.909L64.3578 217.516ZM64.6195 218.481L63.1718 218.874L63.5644 220.321L65.0121 219.929L64.6195 218.481ZM179.847 237.093L179.147 238.42L179.847 237.093ZM278.202 253.418L278.777 254.804L278.202 253.418ZM299.576 230.508L298.129 230.113L299.576 230.508ZM293.219 191.778L294.564 191.114L293.219 191.778ZM238.753 143.145L238.067 144.48L238.753 143.145ZM153.26 114.005L152.935 115.469L153.26 114.005ZM65.6752 101.774L65.588 103.272L65.6752 101.774ZM4.88793 104.011L4.55172 102.55L3.08988 102.886L3.42609 104.348L4.88793 104.011ZM74.3198 447.833L75.653 448.521L76.3401 447.188L75.0076 446.501L74.3198 447.833ZM59.3457 440.156L58.6632 441.491L59.3457 440.156ZM73.8616 448.722L73.1737 450.055L74.5072 450.743L75.1948 449.41L73.8616 448.722ZM58.93 441.066L58.2081 442.381L58.2277 442.392L58.2476 442.402L58.93 441.066ZM58.9289 441.066L59.6507 439.751L59.6305 439.74L59.61 439.729L58.9289 441.066ZM58.9147 441.058L58.2322 442.394L58.2335 442.395L58.9147 441.058ZM24.6324 422.86L23.8753 424.155L24.6324 422.86ZM-3.13474 400.562L-1.94921 399.643H-1.94921L-3.13474 400.562ZM-16.6043 368.258L-15.136 367.952L-16.6043 368.258ZM-23.0727 312.565L-21.577 312.452L-23.0727 312.565ZM52.8104 216.042L54.2733 215.711L53.9418 214.249L52.4795 214.579L52.8104 216.042ZM53.0315 217.018L53.3623 218.481L54.8261 218.15L54.4944 216.686L53.0315 217.018ZM-22.0756 312.49L-23.5713 312.604H-23.5713L-22.0756 312.49ZM-15.6254 368.054L-17.0937 368.361H-17.0937L-15.6254 368.054ZM-2.34453 399.95L-3.53006 400.868L-2.34453 399.95ZM25.1367 421.997L24.3796 423.292L25.1367 421.997ZM366.947 325.719L367.881 326.893V326.893L366.947 325.719ZM370.855 322.635L372.04 321.716L371.121 320.53L369.936 321.449L370.855 322.635ZM173.528 346.636L172.853 347.975L173.528 346.636ZM169.282 344.485L168.603 345.823H168.603L169.282 344.485ZM147.359 334.429L147.85 333.011L147.359 334.429ZM125.764 333.567L125.201 332.176L125.764 333.567ZM101.214 360.496L99.7523 360.16V360.16L101.214 360.496ZM119.167 400.417L118.218 401.579L119.167 400.417ZM209.445 435.068L209.729 433.595L209.445 435.068ZM402.125 447.03L402.156 448.53L403.656 448.499L403.625 446.999L402.125 447.03ZM402.104 446.03L403.604 445.999L403.573 444.499L402.073 444.53L402.104 446.03ZM209.634 434.086L209.351 435.559L209.634 434.086ZM119.799 399.643L118.85 400.804L119.799 399.643ZM102.189 360.72L103.65 361.057V361.057L102.189 360.72ZM126.139 334.493L126.703 335.884H126.703L126.139 334.493ZM147.032 335.374L147.523 333.956L147.032 335.374ZM168.817 345.371L169.5 344.035L169.496 344.033L168.817 345.371ZM168.825 345.375L168.142 346.711L168.146 346.713L168.825 345.375ZM173.078 347.529L173.753 346.189H173.753L173.078 347.529ZM367.562 326.507L368.496 327.681V327.681L367.562 326.507ZM371.468 323.425L372.387 324.611L373.572 323.691L372.653 322.506L371.468 323.425ZM376.179 131.283C260.332 22.3558 92.2896 -10.8405 -5.76373 5.3868L-5.2739 8.34654C91.9181 -7.73826 259.002 25.2233 374.124 133.468L376.179 131.283ZM415.792 208.452C411.733 185.191 400.075 159.256 376.292 131.401L374.011 133.349C397.505 160.866 408.885 186.319 412.837 208.968L415.792 208.452ZM409.76 269.264C416.298 252.247 419.852 231.719 415.792 208.452L412.837 208.968C416.79 231.62 413.334 251.596 406.96 268.188L409.76 269.264ZM385.833 309.022C393.708 299.776 403.225 286.273 409.76 269.264L406.96 268.188C400.579 284.794 391.274 298.008 383.549 307.077L385.833 309.022ZM375.81 319.624C378.361 317.212 381.894 313.647 385.833 309.022L383.549 307.077C379.69 311.608 376.234 315.095 373.749 317.444L375.81 319.624ZM372.789 322.366C373.503 321.748 374.534 320.83 375.81 319.624L373.749 317.444C372.507 318.618 371.509 319.506 370.825 320.098L372.789 322.366ZM371.964 323.067C372.154 322.91 372.432 322.675 372.789 322.366L370.825 320.098C370.484 320.394 370.221 320.615 370.046 320.761L371.964 323.067ZM371.864 323.15L371.962 323.069L370.048 320.759L369.95 320.84L371.864 323.15ZM371.747 323.246C371.776 323.222 371.815 323.191 371.862 323.152L369.952 320.838C369.91 320.873 369.876 320.901 369.849 320.923L371.747 323.246ZM371.692 323.291L371.744 323.249L369.852 320.92L369.8 320.962L371.692 323.291ZM371.676 323.304L371.688 323.294L369.804 320.959L369.792 320.969L371.676 323.304ZM371.663 323.314L371.666 323.312L369.801 320.962L369.798 320.964L371.663 323.314ZM371.922 321.228C371.912 321.215 371.921 321.226 371.933 321.242C371.937 321.248 371.947 321.261 371.958 321.278C371.966 321.289 371.996 321.331 372.03 321.389C372.047 321.419 372.079 321.477 372.112 321.554C372.14 321.621 372.203 321.78 372.224 321.994C372.248 322.246 372.213 322.57 372.031 322.887C371.882 323.146 371.677 323.304 371.707 323.278L369.755 321C369.785 320.974 369.579 321.133 369.43 321.392C369.248 321.709 369.213 322.032 369.238 322.285C369.259 322.499 369.321 322.658 369.35 322.724C369.382 322.802 369.415 322.86 369.432 322.89C369.466 322.948 369.496 322.992 369.504 323.003C369.517 323.021 369.527 323.035 369.532 323.041C369.548 323.063 369.565 323.084 369.57 323.09L371.922 321.228ZM372.213 321.592C372.014 321.344 371.945 321.257 371.922 321.228L369.57 323.091C369.6 323.128 369.676 323.224 369.872 323.468L372.213 321.592ZM372.412 321.84L372.213 321.592L369.872 323.468L370.072 323.717L372.412 321.84ZM370.401 321.763C370.401 321.763 370.402 321.762 370.402 321.762C370.403 321.761 370.404 321.76 370.405 321.76C370.407 321.758 370.411 321.755 370.416 321.751C370.425 321.744 370.44 321.731 370.459 321.717C370.498 321.688 370.561 321.644 370.646 321.598C370.834 321.497 371.074 321.42 371.351 321.419C371.831 321.417 372.153 321.646 372.211 321.687C372.312 321.756 372.38 321.822 372.4 321.842C372.428 321.869 372.45 321.892 372.459 321.903C372.489 321.935 372.511 321.963 372.5 321.949C372.492 321.939 372.469 321.911 372.411 321.839L370.073 323.718C370.128 323.787 370.162 323.83 370.184 323.855C370.187 323.859 370.216 323.895 370.25 323.932C370.26 323.943 370.282 323.967 370.311 323.995C370.332 324.015 370.401 324.082 370.501 324.151C370.56 324.192 370.882 324.421 371.362 324.419C371.639 324.418 371.879 324.341 372.068 324.24C372.152 324.194 372.216 324.15 372.254 324.121C372.273 324.107 372.289 324.095 372.298 324.087C372.302 324.083 372.306 324.08 372.308 324.078C372.309 324.078 372.311 324.077 372.311 324.076C372.312 324.076 372.312 324.075 372.312 324.075L370.401 321.763ZM370.422 321.746L370.419 321.749L372.295 324.089L372.299 324.086L370.422 321.746ZM370.434 321.736L370.42 321.748L372.301 324.084L372.316 324.073L370.434 321.736ZM370.484 321.695L370.429 321.74L372.321 324.068L372.377 324.023L370.484 321.695ZM370.609 321.593C370.556 321.637 370.513 321.672 370.482 321.697L372.378 324.022C372.415 323.992 372.462 323.953 372.521 323.905L370.609 321.593ZM370.687 321.528L370.607 321.594L372.522 323.904L372.602 323.838L370.687 321.528ZM371.339 320.976C371.06 321.216 370.84 321.401 370.685 321.53L372.603 323.836C372.771 323.697 373.004 323.501 373.296 323.249L371.339 320.976ZM371.481 320.853L371.337 320.977L373.298 323.248L373.442 323.124L371.481 320.853ZM374.436 318.17C373.183 319.355 372.173 320.254 371.48 320.854L373.443 323.122C374.168 322.495 375.21 321.567 376.497 320.351L374.436 318.17ZM384.311 307.725C380.425 312.288 376.943 315.801 374.436 318.17L376.497 320.351C379.07 317.918 382.629 314.327 386.594 309.671L384.311 307.725ZM407.893 268.546C401.461 285.287 392.085 298.597 384.311 307.725L386.594 309.671C394.52 300.365 404.107 286.766 410.693 269.622L407.893 268.546ZM413.822 208.796C417.81 231.653 414.322 251.813 407.893 268.546L410.693 269.622C417.286 252.464 420.873 231.752 416.777 208.28L413.822 208.796ZM374.754 132.679C398.356 160.317 409.833 185.937 413.822 208.796L416.777 208.28C412.682 184.809 400.926 158.707 377.035 130.731L374.754 132.679ZM374.736 132.659L374.754 132.679L377.035 130.731L377.017 130.71L374.736 132.659ZM374.829 132.759L374.849 132.777L376.904 130.592L376.884 130.573L374.829 132.759ZM-5.43718 7.35996C92.0476 -8.77328 259.464 24.2713 374.829 132.758L376.884 130.573C260.794 21.4038 92.4191 -11.8756 -5.927 4.40022L-5.43718 7.35996ZM-4.03894 6.62176L-4.20222 5.63518L-7.16196 6.125L-6.99869 7.11158L-4.03894 6.62176ZM65.7042 101.275C39.3793 99.7432 17.4367 100.612 4.77586 103.524L5.44828 106.448C17.6787 103.635 39.2718 102.742 65.5299 104.27L65.7042 101.275ZM153.368 113.517C122.889 106.753 92.0569 102.808 65.7042 101.275L65.5299 104.27C91.7327 105.795 122.406 109.719 152.719 116.445L153.368 113.517ZM238.981 142.701C213.999 129.866 183.842 120.279 153.368 113.517L152.719 116.445C183.042 123.174 212.933 132.691 237.61 145.369L238.981 142.701ZM293.667 191.557C283.857 171.653 263.945 155.526 238.981 142.701L237.61 145.369C262.324 158.066 281.578 173.814 290.977 192.883L293.667 191.557ZM300.059 230.64C302.971 219.973 301.145 206.727 293.667 191.557L290.977 192.883C298.253 207.645 299.822 220.117 297.165 229.85L300.059 230.64ZM278.394 253.88C289.494 249.278 297.138 241.338 300.059 230.64L297.165 229.85C294.524 239.519 287.626 246.805 277.245 251.109L278.394 253.88ZM179.614 237.535C220.354 259.035 256.273 263.052 278.394 253.88L277.245 251.109C256.324 259.783 221.413 256.202 181.014 234.882L179.614 237.535ZM64.7504 218.964C77.0118 215.639 119.062 205.581 179.614 237.535L181.014 234.882C119.593 202.469 76.7097 212.613 63.9653 216.068L64.7504 218.964ZM66.0673 218.089L65.8055 217.123L62.9101 217.909L63.1718 218.874L66.0673 218.089ZM180.547 235.767C119.416 203.506 76.8104 213.621 64.227 217.033L65.0121 219.929C77.1124 216.648 118.886 206.618 179.147 238.42L180.547 235.767ZM277.628 252.033C256.307 260.872 221.06 257.146 180.547 235.767L179.147 238.42C220 259.979 256.255 264.141 278.777 254.804L277.628 252.033ZM298.129 230.113C295.395 240.125 288.249 247.629 277.628 252.033L278.777 254.804C290.117 250.102 298.009 241.944 301.023 230.903L298.129 230.113ZM291.873 192.441C299.217 207.339 300.871 220.069 298.129 230.113L301.023 230.903C304.021 219.925 302.109 206.421 294.564 191.114L291.873 192.441ZM238.067 144.48C262.864 157.219 282.338 173.094 291.873 192.441L294.564 191.114C284.617 170.933 264.486 154.679 239.438 141.811L238.067 144.48ZM152.935 115.469C183.309 122.209 213.288 131.749 238.067 144.48L239.438 141.811C214.355 128.925 184.109 119.314 153.585 112.54L152.935 115.469ZM65.588 103.272C91.8407 104.799 122.567 108.73 152.935 115.469L153.585 112.54C123.051 105.765 92.165 101.813 65.7623 100.277L65.588 103.272ZM5.22414 105.473C17.598 102.627 39.3077 101.742 65.588 103.272L65.7623 100.277C39.415 98.7436 17.356 99.6047 4.55172 102.55L5.22414 105.473ZM6.57391 104.65L6.34977 103.675L3.42609 104.348L3.65023 105.322L6.57391 104.65ZM75.0076 446.501C69.7058 443.765 64.7188 441.217 60.0282 438.82L58.6632 441.491C63.3545 443.888 68.3363 446.434 73.6319 449.166L75.0076 446.501ZM75.1948 449.41L75.653 448.521L72.9865 447.146L72.5284 448.035L75.1948 449.41ZM58.2476 442.402C62.9298 444.794 67.898 447.333 73.1737 450.055L74.5495 447.389C69.2676 444.663 64.2942 442.122 59.6125 439.73L58.2476 442.402ZM58.207 442.38L58.2081 442.381L59.6519 439.751L59.6507 439.751L58.207 442.38ZM58.2335 442.395L58.2477 442.402L59.61 439.729L59.5958 439.722L58.2335 442.395ZM23.8753 424.155C33.179 429.594 44.4863 435.371 58.2322 442.394L59.5971 439.723C45.8256 432.686 34.6037 426.952 25.3894 421.565L23.8753 424.155ZM-4.32027 401.481C2.33596 410.068 11.3923 416.857 23.8753 424.155L25.3894 421.565C13.0344 414.342 4.3615 407.784 -1.94921 399.643L-4.32027 401.481ZM-18.0725 368.565C-15.1363 382.612 -10.9931 392.873 -4.32027 401.481L-1.94921 399.643C-8.25164 391.513 -12.2566 381.727 -15.136 367.952L-18.0725 368.565ZM-24.5684 312.678C-22.7539 336.645 -21.0012 354.555 -18.0725 368.565L-15.136 367.952C-18.0192 354.158 -19.7614 336.433 -21.577 312.452L-24.5684 312.678ZM52.4795 214.579C5.27667 225.254 -28.4806 261.006 -24.5684 312.678L-21.577 312.452C-25.3557 262.542 7.09752 227.918 53.1412 217.505L52.4795 214.579ZM54.4944 216.686L54.2733 215.711L51.3475 216.374L51.5686 217.349L54.4944 216.686ZM-20.5798 312.377C-22.4522 287.646 -15.3456 266.779 -2.13052 250.805C11.0979 234.814 30.5138 223.648 53.3623 218.481L52.7006 215.555C29.3121 220.844 9.27401 232.312 -4.44209 248.892C-18.1715 265.489 -25.4999 287.13 -23.5713 312.604L-20.5798 312.377ZM-14.1572 367.747C-17.0252 354.027 -18.7639 336.363 -20.5798 312.377L-23.5713 312.604C-21.7564 336.575 -20.0072 354.423 -17.0937 368.361L-14.1572 367.747ZM-1.159 399.031C-7.33785 391.06 -11.2967 381.432 -14.1572 367.747L-17.0937 368.361C-14.1764 382.318 -10.0793 392.42 -3.53006 400.868L-1.159 399.031ZM25.8937 420.702C13.5814 413.504 5.03643 407.023 -1.159 399.031L-3.53006 400.868C3.01092 409.307 11.9394 416.019 24.3796 423.292L25.8937 420.702ZM60.0282 438.82C46.2667 431.789 35.0815 426.073 25.8937 420.702L24.3796 423.292C33.6568 428.715 44.9274 434.473 58.6632 441.491L60.0282 438.82ZM367.881 326.893C369.281 325.779 370.573 324.751 371.774 323.82L369.936 321.449C368.718 322.394 367.41 323.434 366.013 324.545L367.881 326.893ZM248.315 369.03C314.883 369.03 349.686 341.365 367.881 326.893L366.013 324.545C348.018 338.858 313.878 366.03 248.315 366.03V369.03ZM172.853 347.975C192.361 357.804 216.63 369.03 248.315 369.03V366.03C217.372 366.03 193.634 355.086 174.203 345.296L172.853 347.975ZM168.603 345.823C169.995 346.529 171.412 347.249 172.853 347.975L174.203 345.296C172.767 344.572 171.353 343.855 169.961 343.148L168.603 345.823ZM146.868 335.846C153.413 338.113 160.564 341.741 168.603 345.823L169.961 343.148C161.977 339.094 154.628 335.359 147.85 333.011L146.868 335.846ZM126.327 334.957C132.502 332.456 139.192 333.187 146.868 335.846L147.85 333.011C139.87 330.247 132.347 329.282 125.201 332.176L126.327 334.957ZM102.676 360.832C105.346 349.229 114.835 339.611 126.327 334.957L125.201 332.176C112.999 337.118 102.686 347.413 99.7523 360.16L102.676 360.832ZM120.116 399.256C104.04 386.121 100.023 372.358 102.676 360.832L99.7523 360.16C96.7827 373.062 101.49 387.911 118.218 401.579L120.116 399.256ZM209.729 433.595C164.377 424.875 136.224 412.418 120.116 399.256L118.218 401.579C134.879 415.192 163.59 427.778 209.162 436.541L209.729 433.595ZM402.094 445.53C317.499 447.279 255.063 442.312 209.729 433.595L209.162 436.541C254.769 445.31 317.431 450.281 402.156 448.53L402.094 445.53ZM400.605 446.061L400.625 447.061L403.625 446.999L403.604 445.999L400.605 446.061ZM209.351 435.559C254.867 444.311 317.454 449.281 402.135 447.53L402.073 444.53C317.522 446.279 255.16 441.312 209.917 432.613L209.351 435.559ZM118.85 400.804C135.327 414.267 163.852 426.81 209.351 435.559L209.917 432.613C164.639 423.907 136.673 411.493 120.748 398.481L118.85 400.804ZM100.727 360.384C97.863 372.827 102.34 387.314 118.85 400.804L120.748 398.481C104.891 385.524 101.103 372.124 103.65 361.057L100.727 360.384ZM125.576 333.103C113.611 337.949 103.573 348.018 100.727 360.384L103.65 361.057C106.233 349.834 115.448 340.442 126.703 335.884L125.576 333.103ZM147.523 333.956C139.644 331.227 132.399 330.34 125.576 333.103L126.703 335.884C132.553 333.514 138.966 334.167 146.541 336.791L147.523 333.956ZM169.496 344.033C161.508 339.977 154.23 336.279 147.523 333.956L146.541 336.791C153.015 339.033 160.094 342.624 168.138 346.708L169.496 344.033ZM169.508 344.04L169.5 344.035L168.134 346.706L168.142 346.711L169.508 344.04ZM173.753 346.189C172.312 345.463 170.897 344.744 169.504 344.038L168.146 346.713C169.538 347.419 170.957 348.14 172.403 348.868L173.753 346.189ZM248.315 367.03C217.125 367.03 193.21 355.992 173.753 346.189L172.403 348.868C191.937 358.71 216.383 370.03 248.315 370.03V367.03ZM366.629 325.333C348.596 339.677 314.227 367.03 248.315 367.03V370.03C315.233 370.03 350.264 342.183 368.496 327.681L366.629 325.333ZM370.549 322.24C369.332 323.183 368.025 324.223 366.629 325.333L368.496 327.681C369.896 326.568 371.188 325.54 372.387 324.611L370.549 322.24ZM369.67 323.554L370.282 324.344L372.653 322.506L372.04 321.716L369.67 323.554Z" fill="#A49C9C"/>
</g>
<defs>
<filter id="filter0_d_1_276" x="-28.8766" y="0.50061" width="451.393" height="458.243" filterUnits="userSpaceOnUse" color-interpolation-filters="sRGB">
<feFlood flood-opacity="0" result="BackgroundImageFix"/>
<feColorMatrix in="SourceAlpha" type="matrix" values="0 0 0 0 0 0 0 0 0 0 0 0 0 0 0 0 0 0 127 0" result="hardAlpha"/>
<feOffset dy="4"/>
<feGaussianBlur stdDeviation="2"/>
<feComposite in2="hardAlpha" operator="out"/>
<feColorMatrix type="matrix" values="0 0 0 0 0.6 0 0 0 0 0.5925 0 0 0 0 0.5925 0 0 0 0.25 0"/>
<feBlend mode="normal" in2="BackgroundImageFix" result="effect1_dropShadow_1_276"/>
<feBlend mode="normal" in="SourceGraphic" in2="effect1_dropShadow_1_276" result="shape"/>
</filter>
</defs>
</svg>
